<svg viewBox="0 0 8622 2693" xmlns="http://www.w3.org/2000/svg" xml:space="preserve" style="fill-rule:evenodd;clip-rule:evenodd;stroke-linecap:square;stroke-linejoin:round;stroke-miterlimit:1.5"><path d="M8344.37 1009.83c-113.75 0-207.62 92.39-207.62 204.32 0 84.85 54.1 158.5 129.76 189.16v273.74l-450.12 221.88c-26.35 12.99-43.04 39.64-42.98 68.64v553.87l-244.94 130.12c-37.51-35.97-88.51-58.3-144.36-58.3-113.75 0-207.62 92.46-207.62 204.36 0 111.89 93.87 204.35 207.62 204.35s207.62-92.46 207.62-204.35c0-1.57.05-3.26 0-4.83l269.27-142.8 442.82 264.11c24.86 14.97 56.24 14.97 81.1 0l442.82-264.11 269.26 142.8c-.04 1.57 0 3.26 0 4.83 0 111.89 93.88 204.35 207.62 204.35 113.74 0 207.63-92.46 207.63-204.35 0-111.9-93.89-204.36-207.63-204.36-55.84 0-106.86 22.33-144.37 58.3l-244.92-130.12v-553.87c.05-29-16.63-55.65-42.98-68.64l-260.34-127.69a78.79 78.79 0 0 0-37.35-9.39c-42.71 0-77.86 34.59-77.86 76.62 0 30.24 18.19 57.77 46.26 70.03l125.72 62.26-324.41 177.19-324.42-177.19 359.29-177.18c26.35-12.99 43.03-39.64 42.98-68.63v-321.64c75.67-30.66 129.77-104.31 129.77-189.16 0-111.93-93.88-204.32-207.62-204.32zm0 153.24c29.58 0 51.91 21.96 51.91 51.08 0 29.11-22.33 51.08-51.91 51.08-29.6 0-51.91-21.97-51.91-51.08 0-29.12 22.31-51.08 51.91-51.08zm-415.25 933.79 337.39 184.37V2713l-337.39-201.09v-415.05zm830.5 0v415.05L8422.22 2713v-431.77l337.4-184.37zm-1375.51 649.7c29.59 0 51.9 21.97 51.9 51.06 0 29.09-22.31 51.06-51.9 51.06s-51.9-21.97-51.9-51.06c0-29.09 22.31-51.06 51.9-51.06zm1920.52 0c29.58 0 51.9 21.97 51.9 51.06 0 29.09-22.32 51.06-51.9 51.06-29.59 0-51.91-21.97-51.91-51.06 0-29.09 22.32-51.06 51.91-51.06z" style="fill:#ff6801;fill-rule:nonzero" transform="translate(-890.721 -660.075)"/><path d="M1350.43 2857.8c-65.55 0-137.67-3.23-216.33-9.68-78.67-6.45-148.324-14.51-208.963-24.19v-191.11c140.943 17.74 259.763 26.61 356.463 26.61 62.28 0 111.85-4.44 148.73-13.31 36.87-8.87 65.96-23.79 87.27-44.75 19.66-19.36 32.78-46.78 39.33-82.26 6.56-35.48 9.84-82.25 9.84-140.31 0-79.03-3.69-135.07-11.07-168.13-7.37-33.07-23.76-56.45-49.16-70.16-25.41-13.71-69.25-25.4-131.53-35.08l-265.5-43.54c-88.5-14.52-147.088-56.05-175.769-124.59-28.68-68.55-43.02-172.17-43.02-310.87 0-174.18 38.104-296.35 114.309-366.51 76.21-70.15 193.8-105.23 352.78-105.23 68.83 0 138.07 3.63 207.73 10.88 69.65 7.26 125.78 16.54 168.39 27.82v186.28c-104.89-17.74-211.42-26.61-319.58-26.61-67.2 0-119.64 4.84-157.34 14.52-37.69 9.67-66.37 25-86.04 45.96-19.66 20.97-32.78 47.58-39.33 79.83-6.56 32.26-9.83 75-9.83 128.22 0 67.74 3.27 116.53 9.83 146.36 6.55 29.84 19.25 50.81 38.1 62.9 18.85 12.1 50.4 21.37 94.65 27.82l250.75 41.13c65.55 11.29 118.41 29.43 158.56 54.43 40.16 25 71.7 66.53 94.65 124.59 19.67 54.83 29.5 145.96 29.5 273.37 0 130.64-15.16 232.64-45.48 306.03-30.32 73.38-77.44 124.99-141.35 154.83-63.92 29.83-150.78 44.75-260.59 44.75zm1443.04-19.35-354-745.11h-162.25v745.11h-231.09v-1664.4h231.09v720.92h162.25l358.92-720.92h243.37l-410.54 803.17 415.46 861.23h-253.21z" style="fill:#404040;fill-rule:nonzero" transform="translate(-890.721 -660.075)"/><path style="fill:#404040" d="M3243.35 1174.05h233.542v1664.41H3243.35z" transform="translate(-890.721 -660.075)"/><path d="M4910.11 2838.45V1534.51h-12.29L4568.4 2838.45h-213.88l-324.5-1303.94h-14.75v1303.94h-218.79v-1664.4h341.71l322.04 1284.59h14.75l322.05-1284.59h336.79v1664.4h-223.71z" style="fill:#404040;fill-rule:nonzero" transform="translate(-890.721 -660.075)"/><path style="fill:#404040" d="M5453.4 1174.05h233.542v1664.41H5453.4z" transform="translate(-890.721 -660.075)"/><path d="M6579.86 689.568V3322.9" style="fill:none;stroke:#404040;stroke-width:41.71px" transform="translate(-890.721 -660.075)"/></svg>