<svg viewBox="0 0 41.815 12.043" xmlns="http://www.w3.org/2000/svg"><path d="M7.99 1.989H5.344v5.8H2.656v-5.8H0V.317h7.99zm9.377 5.802h-2.71V4.923h-3.27V7.79H8.7V.319h2.699v2.72h3.26V.32h2.709zm3.958 0h-2.678V.319h2.678zm10.562-2.43q-.265.868-.847 1.46-1.206 1.218-3.82 1.218-1.651 0-2.773-.53-.265-.127-.519-.275-.243-.158-.56-.455-.318-.307-.55-.667-.223-.36-.382-.9-.159-.539-.159-1.163 0-1.28.678-2.255 1.248-1.799 4.35-1.799 2.709 0 3.81 1.217.412.445.634 1.143l-2.476.434q-.117-.233-.222-.37-.572-.741-1.694-.72-1.047 0-1.693.678-.582.624-.582 1.661 0 .91.487 1.524.603.783 1.714.783.667 0 1.122-.243.466-.254.699-.561.127-.18.232-.445zm9.927 0q-.265.868-.847 1.46-1.206 1.218-3.82 1.218-1.651 0-2.773-.53-.265-.127-.519-.275-.243-.158-.56-.455-.318-.307-.55-.667-.223-.36-.382-.9-.159-.539-.159-1.163 0-1.28.678-2.255 1.248-1.799 4.35-1.799 2.709 0 3.81 1.217.412.445.634 1.143L39.2 2.79q-.117-.233-.222-.37-.572-.741-1.694-.72-1.047 0-1.693.678-.582.624-.582 1.661 0 .91.487 1.524.603.783 1.714.783.667 0 1.122-.243.466-.254.699-.561.127-.18.232-.445z"/></svg>