<?xml version="1.0" encoding="UTF-8" standalone="no"?>
<!-- Created with Inkscape (http://www.inkscape.org/) -->

<svg
   xmlns:dc="http://purl.org/dc/elements/1.1/"
   xmlns:cc="http://creativecommons.org/ns#"
   xmlns:rdf="http://www.w3.org/1999/02/22-rdf-syntax-ns#"
   xmlns:svg="http://www.w3.org/2000/svg"
   xmlns="http://www.w3.org/2000/svg"
   xmlns:sodipodi="http://sodipodi.sourceforge.net/DTD/sodipodi-0.dtd"
   xmlns:inkscape="http://www.inkscape.org/namespaces/inkscape"
   width="640pt"
   height="640pt"
   viewBox="0 0 225.77778 225.77778"
   version="1.1"
   id="svg8"
   inkscape:version="0.92.1 r15371"
   sodipodi:docname="speech-bubble-outline.svg">
  <defs
     id="defs2" />
  <sodipodi:namedview
     id="base"
     pagecolor="#ffffff"
     bordercolor="#666666"
     borderopacity="1.0"
     inkscape:pageopacity="0.0"
     inkscape:pageshadow="2"
     inkscape:zoom="0.35"
     inkscape:cx="-568.57143"
     inkscape:cy="560"
     inkscape:document-units="mm"
     inkscape:current-layer="Group"
     showgrid="false"
     inkscape:pagecheckerboard="true"
     units="pt"
     inkscape:window-width="1920"
     inkscape:window-height="1017"
     inkscape:window-x="2552"
     inkscape:window-y="-8"
     inkscape:window-maximized="1" />
  <metadata
     id="metadata5">
    <rdf:RDF>
      <cc:Work
         rdf:about="">
        <dc:format>image/svg+xml</dc:format>
        <dc:type
           rdf:resource="http://purl.org/dc/dcmitype/StillImage" />
        <dc:title></dc:title>
      </cc:Work>
    </rdf:RDF>
  </metadata>
  <g
     inkscape:label="Layer 1"
     inkscape:groupmode="layer"
     id="layer1"
     transform="translate(0,-71.222225)">
    <g
       id="Icons_with_numbers"
       transform="matrix(1.7890873,0,0,1.9655416,99.080163,169.25323)">
      <g
         transform="translate(-768,-192)"
         id="Group">
        <path
           d="m 776,242.354 c -7.788,0 -15.226,-1.17 -22.03,-3.281 -6.97,5.405 -18.693,12.997 -30.167,12.997 6.023,-5.719 7.722,-16.734 8.08,-24.933 C 722.033,218.789 716,207.55 716,195.195 c 0,-26.023 26.845,-47.121 60,-47.121 33.156,0 60,21.098 60,47.121 0,26.06 -26.844,47.159 -60,47.159 z m 0,-34.318 c 4.705,0 8.56,-3.778 8.56,-8.561 0,-4.703 -3.854,-8.56 -8.56,-8.56 -4.742,0 -8.56,3.857 -8.56,8.56 0,4.783 3.818,8.561 8.56,8.561 z m -25.72,0 c 4.742,0 8.561,-3.778 8.561,-8.561 0,-4.703 -3.819,-8.56 -8.561,-8.56 -4.741,0 -8.56,3.857 -8.56,8.56 0,4.783 3.819,8.561 8.56,8.561 z m 51.402,0 c 4.782,0 8.637,-3.778 8.637,-8.561 0,-4.703 -3.854,-8.56 -8.637,-8.56 -4.705,0 -8.563,3.857 -8.563,8.56 0,4.783 3.858,8.561 8.563,8.561 z"
           id="Oval_247_copy"
           inkscape:connector-curvature="0"
           style="fill:none;stroke-width:5.33265041;stroke-miterlimit:4;stroke-dasharray:none;stroke:#310000;stroke-opacity:1" />
      </g>
    </g>
  </g>
</svg>
